<svg width="16" height="16" viewBox="0 0 16 16" fill="none" xmlns="http://www.w3.org/2000/svg">
<ellipse cx="6.66667" cy="11.6666" rx="4.66667" ry="2.33333" stroke="#232C34" stroke-width="1.5" stroke-linejoin="round"/>
<ellipse cx="6.66667" cy="4.66667" rx="2.66667" ry="2.66667" stroke="#232C34" stroke-width="1.5" stroke-linejoin="round"/>
<path fill-rule="evenodd" clip-rule="evenodd" d="M10.1858 6.56958C9.9003 7.09656 9.49984 7.55218 9.01807 7.90284C9.32301 8.01944 9.65402 8.08331 9.99995 8.08331C11.5187 8.08331 12.75 6.8521 12.75 5.33331C12.75 3.8422 11.5632 2.62827 10.0827 2.58453C10.387 3.08279 10.5854 3.65283 10.6465 4.26332C11.0082 4.48235 11.25 4.8796 11.25 5.33331C11.25 5.9605 10.788 6.4798 10.1858 6.56958Z" fill="#232C34"/>
<path fill-rule="evenodd" clip-rule="evenodd" d="M12.1309 13.1835C12.4751 12.7212 12.6668 12.2076 12.6668 11.6666C12.6668 11.5891 12.6628 11.5121 12.6551 11.4358C12.8985 11.3235 13.0623 11.2101 13.1594 11.1144C13.2195 11.0553 13.2409 11.0171 13.248 11C13.2409 10.9828 13.2195 10.9447 13.1594 10.8855C13.0478 10.7755 12.8477 10.642 12.5401 10.5138C12.4692 10.4842 12.3944 10.4558 12.3161 10.4285C11.8674 9.66404 11.015 9.01711 9.91602 8.58365C9.944 8.58343 9.97203 8.58331 10.0001 8.58331C11.1789 8.58331 12.2814 8.78098 13.117 9.12916C13.5332 9.30257 13.9189 9.52813 14.2121 9.81695C14.5079 10.1084 14.7501 10.5086 14.7501 11C14.7501 11.4914 14.5079 11.8916 14.2121 12.183C13.9189 12.4718 13.5332 12.6974 13.117 12.8708C12.8193 12.9948 12.4877 13.0998 12.1309 13.1835ZM13.2512 11.0105C13.2511 11.0105 13.2507 11.0092 13.2504 11.0067C13.2512 11.0092 13.2513 11.0105 13.2512 11.0105ZM13.2504 10.9933C13.2507 10.9907 13.2511 10.9895 13.2512 10.9895C13.2513 10.9895 13.2512 10.9908 13.2504 10.9933Z" fill="#232C34"/>
</svg>
