<svg width="14" height="14" viewBox="0 0 14 14" fill="none" xmlns="http://www.w3.org/2000/svg">
<path d="M2.2 1.75H4.6V0.25H2.2V1.75ZM5.05 2.2V4.6H6.55V2.2H5.05ZM4.6 5.05H2.2V6.55H4.6V5.05ZM1.75 4.6V2.2H0.25V4.6H1.75ZM2.2 5.05C1.95147 5.05 1.75 4.84853 1.75 4.6H0.25C0.25 5.67696 1.12304 6.55 2.2 6.55V5.05ZM5.05 4.6C5.05 4.84853 4.84853 5.05 4.6 5.05V6.55C5.67696 6.55 6.55 5.67696 6.55 4.6H5.05ZM4.6 1.75C4.84853 1.75 5.05 1.95147 5.05 2.2H6.55C6.55 1.12304 5.67696 0.25 4.6 0.25V1.75ZM2.2 0.25C1.12304 0.25 0.25 1.12304 0.25 2.2H1.75C1.75 1.95147 1.95147 1.75 2.2 1.75V0.25ZM9.4 8.95H11.8V7.45H9.4V8.95ZM12.25 9.4V11.8H13.75V9.4H12.25ZM11.8 12.25H9.4V13.75H11.8V12.25ZM8.95 11.8V9.4H7.45V11.8H8.95ZM9.4 12.25C9.15147 12.25 8.95 12.0485 8.95 11.8H7.45C7.45 12.877 8.32305 13.75 9.4 13.75V12.25ZM12.25 11.8C12.25 12.0485 12.0485 12.25 11.8 12.25V13.75C12.877 13.75 13.75 12.877 13.75 11.8H12.25ZM11.8 8.95C12.0485 8.95 12.25 9.15147 12.25 9.4H13.75C13.75 8.32305 12.877 7.45 11.8 7.45V8.95ZM9.4 7.45C8.32305 7.45 7.45 8.32305 7.45 9.4H8.95C8.95 9.15147 9.15147 8.95 9.4 8.95V7.45ZM9.4 1.75H11.8V0.25H9.4V1.75ZM12.25 2.2V4.6H13.75V2.2H12.25ZM11.8 5.05H9.4V6.55H11.8V5.05ZM8.95 4.6V2.2H7.45V4.6H8.95ZM9.4 5.05C9.15147 5.05 8.95 4.84853 8.95 4.6H7.45C7.45 5.67696 8.32305 6.55 9.4 6.55V5.05ZM12.25 4.6C12.25 4.84853 12.0485 5.05 11.8 5.05V6.55C12.877 6.55 13.75 5.67696 13.75 4.6H12.25ZM11.8 1.75C12.0485 1.75 12.25 1.95147 12.25 2.2H13.75C13.75 1.12304 12.877 0.25 11.8 0.25V1.75ZM9.4 0.25C8.32305 0.25 7.45 1.12304 7.45 2.2H8.95C8.95 1.95147 9.15147 1.75 9.4 1.75V0.25ZM2.2 8.95H4.6V7.45H2.2V8.95ZM5.05 9.4V11.8H6.55V9.4H5.05ZM4.6 12.25H2.2V13.75H4.6V12.25ZM1.75 11.8V9.4H0.25V11.8H1.75ZM2.2 12.25C1.95147 12.25 1.75 12.0485 1.75 11.8H0.25C0.25 12.877 1.12304 13.75 2.2 13.75V12.25ZM5.05 11.8C5.05 12.0485 4.84853 12.25 4.6 12.25V13.75C5.67696 13.75 6.55 12.877 6.55 11.8H5.05ZM4.6 8.95C4.84853 8.95 5.05 9.15147 5.05 9.4H6.55C6.55 8.32305 5.67696 7.45 4.6 7.45V8.95ZM2.2 7.45C1.12304 7.45 0.25 8.32305 0.25 9.4H1.75C1.75 9.15147 1.95147 8.95 2.2 8.95V7.45Z" fill="#434D56"/>
</svg>
