<svg width="32" height="19" viewBox="0 0 32 19" fill="none" xmlns="http://www.w3.org/2000/svg">
<path d="M10.1975 18.5788C8.13846 18.576 6.42583 17.1266 6.09786 15.1749C5.93112 14.1805 6.10339 13.25 6.59995 12.3768C8.08963 9.75904 9.57931 7.1404 11.069 4.52175C11.5269 3.71609 11.9792 2.90765 12.4435 2.10661C13.1446 0.897645 14.1884 0.192803 15.5758 0.0281551C17.5943 -0.211417 19.4847 1.10947 19.984 3.09542C20.1968 3.94086 20.9329 4.54858 21.798 4.55135C22.6041 4.55413 23.1799 4.16286 23.5696 3.45432C23.9206 2.81515 24.2614 2.16118 24.6898 1.57659C25.3642 0.658073 26.314 0.163204 27.4453 0.0281551C29.4832 -0.215117 31.4841 1.13814 31.9162 3.31094C32.1143 4.30531 31.9613 5.25712 31.4593 6.14233C30.2736 8.23466 29.0833 10.3251 27.8949 12.4165C27.1395 13.7457 26.3803 15.0731 25.6295 16.4051C24.9644 17.5854 23.9731 18.3161 22.64 18.527C20.4889 18.8665 18.5063 17.4827 18.0236 15.3996C17.7785 14.3424 17.9398 13.3406 18.4722 12.399C18.814 11.7949 19.1604 11.1946 19.5068 10.5934C19.8007 10.0819 19.6247 9.42327 19.1144 9.12727C18.5966 8.82665 17.9453 9.00425 17.6468 9.52964C16.4188 11.6932 15.1926 13.8567 13.9645 16.0203C13.6918 16.5004 13.4265 16.9832 13.0257 17.3763C12.2178 18.1681 11.2486 18.5612 10.1956 18.5807L10.1975 18.5788Z" fill="#3C57A1"/>
<path d="M1.39321e-06 4.10363C0.00184391 1.82816 1.83239 -0.000544031 4.10422 0.00223094C6.37789 0.00500591 8.20751 1.85313 8.18725 4.15636C8.16698 6.41888 6.34565 8.21521 4.07934 8.21891C1.8241 8.22261 -0.00184113 6.37448 1.39321e-06 4.10363Z" fill="#3C57A1"/>
</svg>
