<svg width="184" height="36" viewBox="0 0 184 36" fill="none" xmlns="http://www.w3.org/2000/svg">
<path d="M19.7575 35.9964C15.7681 35.991 12.4499 33.1827 11.8145 29.4013C11.4914 27.4747 11.8252 25.6718 12.7873 23.98C15.6735 18.9081 18.5598 13.8345 21.446 8.76089C22.3331 7.19991 23.2095 5.63356 24.1091 4.08154C25.4675 1.73919 27.4898 0.373556 30.1779 0.0545504C34.0888 -0.40962 37.7515 2.14959 38.7189 5.99737C39.1312 7.63541 40.5574 8.81286 42.2334 8.81824C43.7953 8.82361 44.9109 8.06553 45.6659 6.69273C46.3459 5.45434 47.0064 4.18728 47.8364 3.05463C49.1429 1.27501 50.9832 0.316206 53.1751 0.0545504C57.1234 -0.416789 61.0003 2.20515 61.8374 6.41494C62.2212 8.34152 61.9249 10.1857 60.9521 11.9008C58.6549 15.9546 56.3488 20.0049 54.0462 24.057C52.5825 26.6324 51.1117 29.2041 49.657 31.7848C48.3683 34.0716 46.4477 35.4874 43.8649 35.8961C39.697 36.5538 35.8558 33.8727 34.9205 29.8367C34.4457 27.7883 34.7581 25.8474 35.7898 24.023C36.452 22.8527 37.1232 21.6896 37.7943 20.5247C38.3637 19.5336 38.0228 18.2576 37.0339 17.6841C36.0308 17.1016 34.7688 17.4457 34.1905 18.4637C31.8112 22.6555 29.4354 26.8474 27.0561 31.0393C26.5277 31.9694 26.0137 32.9049 25.2372 33.6666C23.6718 35.2007 21.7941 35.9624 19.7539 36L19.7575 35.9964Z" fill="#3C57A1"/>
<path d="M2.69935e-06 7.95086C0.00357258 3.54213 3.55025 -0.000975852 7.95191 0.00440064C12.3571 0.00977714 15.902 3.59052 15.8628 8.05301C15.8235 12.4366 12.2947 15.917 7.90372 15.9242C3.53419 15.9314 -0.00356718 12.3506 2.69935e-06 7.95086Z" fill="#3C57A1"/>
<path d="M76.1991 0.728149H78.3173L82.9458 12.3728L82.5098 12.2869L86.591 0.728149H88.8405L82.6393 16.8035L76.1991 0.728149ZM68.6223 0.728149H71.067L75.3471 12.5445L74.9768 12.3943L78.0983 4.47375L79.0817 7.27848L74.9111 16.8249L68.6223 0.728149Z" fill="#48494A"/>
<path d="M111.394 0.642212V16.1201H109.297V9.33366H101.022V16.1201H98.9055V0.642212H101.022V7.36426H109.297V0.642212H111.394Z" fill="#48494A"/>
<path d="M115.935 0.642212H126.197V2.63307H118.053V7.3428H125.323V9.33366H118.053V14.1292H126.504V16.1201H115.935V0.642212Z" fill="#48494A"/>
<path d="M132.637 10.2548H138.51L139.209 12.0525H132.026L132.637 10.2548ZM128.598 16.12L135.498 0H135.629L142.507 16.1183H140.085L134.932 3.2537L136.439 2.28958L130.676 16.1183H128.602L128.598 16.12Z" fill="#48494A"/>
<path d="M145.476 0.642212H147.592V14.1292H155.605V16.1201H145.476V0.642212Z" fill="#48494A"/>
<path d="M156.065 0.642212H166.544V2.63307H162.308V16.1201H160.191V2.63307H156.065V0.642212Z" fill="#48494A"/>
<path d="M182.395 0.642212V16.1201H180.298V9.33366H172.025V16.1201H169.906V0.642212H172.025V7.36426H180.298V0.642212H182.395Z" fill="#48494A"/>
<path d="M70.5122 19.8171L75.7082 32.6191L74.5077 32.383L79.4409 19.8171H81.9075L74.9437 35.9998L68 19.8171H70.5122Z" fill="#48494A"/>
<path d="M85.0747 19.8171H95.3352V21.808H87.191V26.5177H94.4632V28.5086H87.191V33.3042H95.6417V35.295H85.0747V19.8171Z" fill="#48494A"/>
<path d="M112.977 35.7869L100.772 23.6486L101.383 23.7988L101.427 35.295H99.3087V19.3467H99.4182L111.492 31.5261L110.99 31.4188L110.947 19.8171H113.043V35.7869H112.977Z" fill="#48494A"/>
<path d="M116.427 19.8171H126.907V21.808H122.671V35.295H120.552V21.808H116.427V19.8171Z" fill="#48494A"/>
<path d="M132.168 29.8144C132.168 30.5138 132.34 31.138 132.681 31.6872C133.022 32.2363 133.478 32.6692 134.046 32.9822C134.613 33.297 135.253 33.4526 135.967 33.4526C136.68 33.4526 137.372 33.2952 137.954 32.9822C138.536 32.6692 138.994 32.2363 139.329 31.6872C139.663 31.138 139.831 30.5138 139.831 29.8144V19.8171H141.905V29.8787C141.905 31.0056 141.639 31.9912 141.108 32.8337C140.577 33.6762 139.864 34.3255 138.968 34.7817C138.072 35.2378 137.072 35.4667 135.965 35.4667C134.858 35.4667 133.861 35.2378 132.973 34.7817C132.084 34.3255 131.378 33.6762 130.855 32.8337C130.331 31.9912 130.068 31.0074 130.068 29.8787V19.8171H132.165V29.8144H132.168Z" fill="#48494A"/>
<path d="M153.237 28.7876L157.364 35.295H154.919L150.726 28.852L153.237 28.7876ZM150.639 27.6106C151.265 27.6106 151.784 27.5176 152.2 27.3316C152.615 27.1456 152.939 26.9077 153.173 26.6143C153.405 26.3228 153.572 26.0044 153.675 25.6627C153.777 25.3193 153.828 24.9991 153.828 24.6986C153.828 24.3981 153.773 24.06 153.664 23.7237C153.554 23.3892 153.379 23.078 153.14 22.7936C152.899 22.5092 152.587 22.2731 152.2 22.087C151.815 21.901 151.345 21.808 150.792 21.808H148.347V27.6089H150.639V27.6106ZM150.42 19.8189C151.221 19.8189 151.96 19.9227 152.636 20.1302C153.313 20.3377 153.903 20.6435 154.406 21.0514C154.908 21.4574 155.302 21.9582 155.585 22.5503C155.869 23.1424 156.01 23.831 156.01 24.6163C156.01 25.2298 155.919 25.8291 155.736 26.414C155.554 26.9989 155.253 27.5301 154.829 28.0095C154.408 28.4871 153.857 28.8735 153.182 29.165C152.505 29.4584 151.671 29.6033 150.683 29.6033H148.347V35.2968H146.229V19.8171H150.422L150.42 19.8189Z" fill="#48494A"/>
<path d="M160.616 19.8171H170.879V21.808H162.735V26.5177H170.005V28.5086H162.735V33.3042H171.183V35.295H160.616V19.8171Z" fill="#48494A"/>
<path d="M183.017 22.579C182.478 22.3089 181.889 22.0728 181.249 21.8724C180.608 21.6721 179.983 21.5737 179.371 21.5737C178.527 21.5737 177.853 21.7669 177.352 22.1515C176.85 22.5361 176.598 23.0512 176.598 23.6934C176.598 24.1781 176.759 24.5895 177.078 24.924C177.397 25.2603 177.821 25.5483 178.344 25.7915C178.868 26.0348 179.413 26.262 179.983 26.4766C180.477 26.6627 180.964 26.8684 181.446 27.0973C181.926 27.3263 182.358 27.6107 182.745 27.9541C183.13 28.2976 183.436 28.7179 183.662 29.217C183.889 29.716 184 30.3367 184 31.079C184 31.8929 183.792 32.6352 183.378 33.306C182.964 33.9768 182.369 34.5045 181.599 34.8908C180.827 35.2754 179.91 35.4686 178.848 35.4686C178.149 35.4686 177.483 35.3899 176.85 35.2325C176.217 35.0751 175.631 34.8729 175.093 34.6225C174.555 34.3739 174.073 34.1127 173.652 33.8408L174.591 32.2131C174.94 32.4564 175.341 32.6871 175.792 32.9089C176.243 33.1307 176.715 33.3078 177.211 33.4437C177.706 33.5797 178.186 33.6476 178.653 33.6476C179.147 33.6476 179.638 33.5582 180.127 33.3793C180.614 33.2005 181.017 32.9268 181.338 32.5547C181.657 32.1845 181.818 31.6908 181.818 31.0772C181.818 30.5496 181.676 30.1113 181.393 29.7607C181.108 29.4119 180.734 29.1114 180.269 28.861C179.804 28.6124 179.308 28.387 178.784 28.1867C178.29 28.0006 177.788 27.7985 177.277 27.5767C176.768 27.3549 176.295 27.0848 175.858 26.7628C175.422 26.4426 175.071 26.0455 174.81 25.5751C174.548 25.1047 174.418 24.5341 174.418 23.8633C174.418 23.0494 174.619 22.3393 175.018 21.7329C175.418 21.1265 175.969 20.6489 176.668 20.2984C177.366 19.9478 178.167 19.7599 179.07 19.7313C180.088 19.7313 180.988 19.853 181.767 20.0944C182.546 20.3377 183.234 20.6364 183.83 20.9942L183.022 22.579H183.017Z" fill="#48494A"/>
</svg>
